<svg width="79" height="73" viewBox="0 0 79 73" fill="none" xmlns="http://www.w3.org/2000/svg">
<path d="M44.7462 26.5681C44.7462 28.8849 42.8681 30.763 40.5513 30.763C38.2344 30.763 36.3563 28.8849 36.3563 26.5681C36.3563 24.2512 38.2344 22.3731 40.5513 22.3731C42.8681 22.3731 44.7462 24.2512 44.7462 26.5681Z" fill="url(#paint0_linear_119_997)"/>
<path fill-rule="evenodd" clip-rule="evenodd" d="M39.1529 0C37.6084 0 36.3563 1.2521 36.3563 2.79664V12.4204L1.33094 33.9745C0.669001 34.3819 0.206437 35.0463 0.0541917 35.8085C-0.0980533 36.5707 0.0737548 37.3618 0.528409 37.9922L5.3481 44.6748L5.34923 44.6764C6.57441 46.3726 8.25048 47.6916 10.1873 48.4836C12.123 49.2751 14.2417 49.5086 16.3033 49.1576C21.5622 48.2673 30.0294 47.7746 37.8121 51.3205L28.6723 64.1161C26.067 62.8689 23.63 61.2495 21.4436 59.2885C20.2938 58.2573 18.5257 58.3533 17.4944 59.5032C16.4631 60.653 16.5592 62.4211 17.709 63.4524C20.9277 66.3392 24.6057 68.5999 28.5551 70.1649C28.5903 70.1797 28.6257 70.1936 28.6614 70.2069C33.0858 71.944 37.848 72.8093 42.6845 72.7053C62.1881 72.3196 78.0304 56.3784 78.3023 36.874C78.3708 32.0566 77.4812 27.2735 75.6851 22.8029C73.889 18.3322 71.2222 14.2632 67.8398 10.8322C64.4573 7.40125 60.4266 4.6768 55.982 2.81721C51.5374 0.95763 46.7675 6.00093e-06 41.9496 0H39.1529ZM34.1184 66.1146L43.4287 53.0802C48.0797 52.728 52.4712 50.7234 55.7922 47.4023C59.4635 43.731 61.526 38.7516 61.526 33.5596C61.526 32.0151 60.2739 30.763 58.7294 30.763C57.1849 30.763 55.9328 32.0151 55.9328 33.5596C55.9328 37.2682 54.4595 40.8249 51.8372 43.4473C49.3857 45.8987 46.1177 47.346 42.6724 47.5242C32.6835 41.8744 21.5596 42.5949 15.3697 43.6428L15.3663 43.6434C14.3342 43.8194 13.2734 43.7027 12.3043 43.3064C11.3355 42.9103 10.4971 42.2506 9.88408 41.4023L6.82514 37.161L40.6187 16.365C41.4458 15.856 41.9496 14.9543 41.9496 13.9832V5.59327C46.0263 5.59328 50.0624 6.40358 53.8232 7.97707C57.584 9.55057 60.9946 11.8559 63.8567 14.759C66.7188 17.6621 68.9753 21.1052 70.4951 24.888C72.0148 28.6709 72.7676 32.7181 72.7095 36.7944L72.7095 36.7953C72.4801 53.2859 59.0613 66.7873 42.5735 67.1131L42.5682 67.1132C39.6949 67.1754 36.8525 66.833 34.1184 66.1146Z" fill="url(#paint1_linear_119_997)"/>
<defs>
<linearGradient id="paint0_linear_119_997" x1="39.153" y1="0" x2="39.153" y2="72.7137" gradientUnits="userSpaceOnUse">
<stop stop-color="white"/>
<stop offset="1" stop-color="#ffffff"/>
</linearGradient>
<linearGradient id="paint1_linear_119_997" x1="39.153" y1="0" x2="39.153" y2="72.7137" gradientUnits="userSpaceOnUse">
<stop stop-color="white"/>
<stop offset="1" stop-color="#ffffff"/>
</linearGradient>
</defs>
</svg>
