<svg width="466" height="94" viewBox="0 0 466 94" fill="none" xmlns="http://www.w3.org/2000/svg">
<path d="M466 71.6596C466 71.0427 465.794 70.4258 465.178 69.809L440.4 44.5173L460.654 23.6466C461.065 23.2354 461.373 22.6185 461.373 22.0016C461.373 20.6651 460.243 19.637 458.906 19.637C458.289 19.637 457.569 19.9454 457.158 20.3567L427.651 51.0973V2.57029C427.651 1.23374 426.52 0 425.081 0C423.642 0 422.511 1.23374 422.511 2.57029V71.2483C422.511 72.5849 423.642 73.9214 425.081 73.9214C426.52 73.9214 427.651 72.5849 427.651 71.2483V57.5744L437.11 47.8073L461.888 73.2017C462.402 73.7158 463.018 73.9214 463.738 73.9214C464.972 73.9214 466 72.9961 466 71.6596Z" fill="black"/>
<path d="M23.5438 0.719683C33.7221 0.719683 40.8161 6.37431 44.2089 12.2346C44.9286 13.5711 45.1342 14.3936 45.1342 15.1133C45.1342 16.2442 44.3117 17.2723 42.8724 17.2723C41.433 17.2723 40.8161 16.5526 40.1993 15.5245C37.2177 9.97271 32.3856 5.55182 23.5438 5.55182C14.0852 5.55182 7.60804 10.1783 7.60804 18.1976C7.60804 25.2916 12.7486 29.0956 20.3567 32.18L27.5535 35.0587C38.8627 39.5824 48.1157 43.4892 48.1157 54.9013C48.1157 67.3415 35.984 74.127 24.1607 74.127C14.188 74.127 4.21527 69.1921 0.514057 60.3503C0.205623 59.6306 0 59.0137 0 58.4997C0 56.9575 0.925303 55.9294 2.36466 55.9294C3.70121 55.9294 4.5237 56.6491 5.03776 57.78C8.32772 64.9768 15.2161 69.1921 24.2635 69.1921C33.5165 69.1921 42.8724 64.874 42.8724 54.9013C42.8724 46.1112 35.7879 43.338 27.9363 40.2645C27.7065 40.1745 27.476 40.0843 27.245 39.9936L19.2257 36.8065C9.35584 32.8997 2.36466 27.4506 2.36466 18.3004C2.36466 7.81367 11.8233 0.719683 23.5438 0.719683Z" fill="black"/>
<path fill-rule="evenodd" clip-rule="evenodd" d="M87.9913 19.3285C99.5062 19.3285 113.591 28.376 113.591 46.6764C113.591 65.0796 99.5062 74.127 87.9913 74.127C79.8692 74.127 71.7471 69.9118 67.6347 61.1728V90.6797C67.6347 92.0162 66.5037 93.25 65.0644 93.25C63.625 93.25 62.4941 92.0162 62.4941 90.6797V22.3101C62.4941 20.8707 63.5222 19.637 65.0644 19.637C66.5037 19.637 67.6347 20.8707 67.6347 22.3101V31.5631C71.6443 23.2354 79.8692 19.3285 87.9913 19.3285ZM87.6829 69.5005C96.9359 69.5005 108.451 62.3037 108.451 46.6764C108.451 31.1519 96.9359 23.9551 87.6829 23.9551C78.1214 23.9551 67.3262 30.9462 67.3262 46.6764C67.3262 61.9953 78.1214 69.5005 87.6829 69.5005Z" fill="black"/>
<path d="M127.952 52.331C127.952 69.0893 139.056 74.2298 148.411 74.2298C161.366 74.2298 167.946 64.2571 168.665 60.9672V71.3511C168.665 72.7905 169.796 74.0242 171.236 74.0242C172.675 74.0242 173.806 72.7905 173.806 71.3511V22.4129C173.806 21.0763 172.675 19.7398 171.236 19.7398C169.796 19.7398 168.665 21.0763 168.665 22.4129V52.5366C167.329 60.4531 160.543 69.5005 149.131 69.5005C141.112 69.5005 133.093 64.9768 133.093 52.331V22.4129C133.093 21.0763 131.962 19.7398 130.522 19.7398C129.083 19.7398 127.952 21.0763 127.952 22.4129V52.331Z" fill="black"/>
<path d="M215.075 19.4314C217.234 19.4314 218.571 20.4595 218.571 22.0016C218.571 23.5438 217.234 24.5719 215.075 24.5719C204.28 24.5719 196.775 33.2081 195.438 41.1246V71.2483C195.438 72.6877 194.307 73.9214 192.868 73.9214C191.428 73.9214 190.297 72.6877 190.297 71.2483V22.3101C190.297 20.8707 191.428 19.637 192.868 19.637C194.307 19.637 195.438 20.8707 195.438 22.3101V32.694C196.158 29.4041 202.943 19.4314 215.075 19.4314Z" fill="black"/>
<path fill-rule="evenodd" clip-rule="evenodd" d="M279.665 53.3591C279.665 44.2089 274.833 37.2177 263.935 34.1334C272.159 31.5631 275.552 26.1141 275.552 19.2257C275.552 8.73897 267.739 1.43936 252.934 1.43936H234.736C233.091 1.43936 231.96 2.57029 231.96 4.21527V70.6314C231.96 72.2764 233.091 73.4073 234.736 73.4073H253.139C270.309 73.4073 279.665 66.3134 279.665 53.3591ZM237.204 32.0772V6.06587H252.934C264.449 6.06587 270.412 11.4121 270.412 19.5342C270.412 28.2731 264.449 32.0772 252.934 32.0772H237.204ZM274.524 53.2563C274.524 63.7431 267.327 68.7808 253.139 68.7808H237.204V36.4981H253.139C267.122 36.4981 274.524 42.8724 274.524 53.2563Z" fill="black"/>
<path fill-rule="evenodd" clip-rule="evenodd" d="M381.818 19.3285C393.744 19.3285 408.138 28.376 408.138 46.6764C408.138 65.0796 393.744 74.127 381.818 74.127C369.892 74.127 355.499 65.0796 355.499 46.6764C355.499 28.376 369.892 19.3285 381.818 19.3285ZM381.818 23.9551C372.36 23.9551 360.639 31.1519 360.639 46.6764C360.639 62.3037 372.36 69.5005 381.818 69.5005C391.277 69.5005 402.997 62.3037 402.997 46.6764C402.997 31.1519 391.277 23.9551 381.818 23.9551Z" fill="black"/>
<path d="M318.147 42.2361C319.913 42.2361 321.345 40.8046 321.345 39.0387C321.345 37.2729 319.913 35.8414 318.147 35.8414C316.381 35.8414 314.95 37.2729 314.95 39.0387C314.95 40.8046 316.381 42.2361 318.147 42.2361Z" fill="#50B498"/>
<path fill-rule="evenodd" clip-rule="evenodd" d="M314.95 20.9204C314.95 19.7431 315.904 18.7888 317.082 18.7888H319.213C322.885 18.7888 326.521 19.5187 329.909 20.936C333.296 22.3534 336.368 24.43 338.946 27.045C341.524 29.6601 343.557 32.7615 344.926 36.1689C346.295 39.5764 346.973 43.222 346.921 46.8939C346.714 61.7599 334.639 73.9102 319.773 74.2042C316.087 74.2835 312.457 73.6239 309.085 72.2999C309.058 72.2898 309.031 72.2792 309.004 72.2679C305.994 71.0751 303.19 69.352 300.737 67.1517C299.861 66.3656 299.788 65.018 300.574 64.1416C301.36 63.2652 302.707 63.192 303.584 63.978C305.25 65.4727 307.108 66.7069 309.093 67.6575L316.059 57.9048C310.128 55.2022 303.674 55.5778 299.666 56.2563C298.094 56.5238 296.48 56.3459 295.004 55.7426C293.528 55.1389 292.25 54.1336 291.317 52.8408L287.642 47.7461C287.296 47.2657 287.165 46.6627 287.281 46.0817C287.397 45.5008 287.749 44.9944 288.254 44.6839L314.95 28.2555V20.9204ZM320.34 59.2461L313.244 69.1808C315.328 69.7283 317.495 69.9893 319.685 69.9419L319.689 69.9419C332.256 69.6935 342.483 59.4029 342.658 46.8339C342.702 43.7269 342.129 40.6415 340.97 37.7582C339.812 34.875 338.092 32.2507 335.91 30.038C333.729 27.8252 331.13 26.0681 328.263 24.8688C325.397 23.6695 322.32 23.0519 319.213 23.0519V29.4467C319.213 30.1869 318.829 30.8741 318.199 31.262L292.442 47.1126L294.773 50.3452C295.24 50.9919 295.879 51.4946 296.618 51.7966C297.356 52.0986 298.165 52.1876 298.952 52.0534L298.954 52.053C303.672 51.2543 312.151 50.7051 319.764 55.0113C322.39 54.8755 324.881 53.7724 326.749 51.9039C328.748 49.9052 329.871 47.1943 329.871 44.3677C329.871 43.1904 330.825 42.2361 332.003 42.2361C333.18 42.2361 334.134 43.1904 334.134 44.3677C334.134 48.325 332.562 52.1202 329.764 54.9184C327.233 57.4497 323.885 58.9776 320.34 59.2461Z" fill="#50B498"/>
</svg>
