<svg width="170" height="170" viewBox="0 0 170 170" fill="none" xmlns="http://www.w3.org/2000/svg">
<g filter="url(#filter0_d_12_195)">
<rect x="6" y="6" width="150" height="150" rx="30" fill="#50B498"/>
<path d="M87.4285 69.5357C87.4285 72.1985 85.2699 74.3571 82.6071 74.3571C79.9443 74.3571 77.7857 72.1985 77.7857 69.5357C77.7857 66.8729 79.9443 64.7143 82.6071 64.7143C85.2699 64.7143 87.4285 66.8729 87.4285 69.5357Z" fill="white"/>
<path fill-rule="evenodd" clip-rule="evenodd" d="M81 39C79.2248 39 77.7857 40.4391 77.7857 42.2143V53.2753L37.5297 78.0482C36.7689 78.5164 36.2373 79.2801 36.0623 80.1561C35.8873 81.0321 36.0848 81.9414 36.6073 82.6659L42.1468 90.3465L42.1481 90.3483C43.5562 92.2978 45.4826 93.8138 47.7086 94.724C49.9334 95.6338 52.3686 95.9021 54.738 95.4987C60.7822 94.4755 70.514 93.9091 79.4588 97.9846L68.9542 112.691C65.9598 111.258 63.1589 109.396 60.646 107.143C59.3245 105.957 57.2923 106.068 56.107 107.389C54.9217 108.711 55.0321 110.743 56.3537 111.928C60.053 115.246 64.2802 117.845 68.8194 119.643C68.8599 119.66 68.9007 119.676 68.9416 119.691C74.0268 121.688 79.5002 122.683 85.059 122.563C107.475 122.12 125.683 103.798 125.996 81.3807C126.075 75.8438 125.052 70.3465 122.988 65.2082C120.923 60.0699 117.858 55.3932 113.971 51.4499C110.083 47.5065 105.451 44.3752 100.342 42.2379C95.2339 40.1006 89.7517 39 84.2142 39H81ZM75.2136 114.988L85.9143 100.007C91.2598 99.6023 96.3071 97.2983 100.124 93.4813C104.344 89.2617 106.714 83.5387 106.714 77.5714C106.714 75.7962 105.275 74.3571 103.5 74.3571C101.725 74.3571 100.286 75.7962 100.286 77.5714C100.286 81.8338 98.5924 85.9216 95.5785 88.9356C92.7609 91.7532 89.0048 93.4165 85.045 93.6213C73.5644 87.1279 60.7793 87.956 53.665 89.1604L53.6611 89.161C52.4748 89.3634 51.2556 89.2292 50.1418 88.7737C49.0283 88.3184 48.0647 87.5602 47.3601 86.5852L43.8444 81.7105L82.6846 57.8089C83.6352 57.2239 84.2142 56.1876 84.2142 55.0714V45.4286C88.8998 45.4286 93.5386 46.3599 97.861 48.1684C102.184 49.9768 106.103 52.6264 109.393 55.9631C112.682 59.2998 115.276 63.257 117.023 67.6048C118.769 71.9525 119.635 76.6041 119.568 81.2892L119.568 81.2902C119.304 100.243 103.881 115.761 84.9313 116.136L84.9253 116.136C81.6228 116.207 78.356 115.814 75.2136 114.988Z" fill="white"/>
</g>
<defs>
<filter id="filter0_d_12_195" x="0" y="0" width="170" height="170" filterUnits="userSpaceOnUse" color-interpolation-filters="sRGB">
<feFlood flood-opacity="0" result="BackgroundImageFix"/>
<feColorMatrix in="SourceAlpha" type="matrix" values="0 0 0 0 0 0 0 0 0 0 0 0 0 0 0 0 0 0 127 0" result="hardAlpha"/>
<feOffset dx="4" dy="4"/>
<feGaussianBlur stdDeviation="5"/>
<feComposite in2="hardAlpha" operator="out"/>
<feColorMatrix type="matrix" values="0 0 0 0 0.183333 0 0 0 0 0.401111 0 0 0 0 1 0 0 0 0.5 0"/>
<feBlend mode="normal" in2="BackgroundImageFix" result="effect1_dropShadow_12_195"/>
<feBlend mode="normal" in="SourceGraphic" in2="effect1_dropShadow_12_195" result="shape"/>
</filter>
</defs>
</svg>
